<svg width="30" height="30" viewBox="0 0 30 30" fill="none" xmlns="http://www.w3.org/2000/svg">
<g clip-path="url(#clip0_35_218)">
<path d="M12.3632 0.427687C12.0117 0.0585463 11.4843 -0.0820787 10.9921 0.0468275C10.5 0.175734 10.1191 0.568312 9.99019 1.0605L9.06441 4.72261L5.43159 3.69722C4.93941 3.55659 4.41206 3.69722 4.05464 4.05464C3.69722 4.41206 3.55659 4.93941 3.69722 5.43159L4.72261 9.06441L1.0605 9.99605C0.568312 10.1191 0.181593 10.5058 0.0468275 10.998C-0.0879381 11.4902 0.0585463 12.0117 0.427687 12.3632L3.13472 15L0.427687 17.6367C0.0585463 17.9882 -0.0820787 18.5156 0.0468275 19.0078C0.175734 19.5 0.568312 19.8808 1.0605 20.0097L4.72261 20.9355L3.69722 24.5683C3.55659 25.0605 3.69722 25.5878 4.05464 25.9453C4.41206 26.3027 4.93941 26.4433 5.43159 26.3027L9.06441 25.2773L9.99019 28.9394C10.1132 29.4316 10.5 29.8183 10.9921 29.9531C11.4843 30.0878 12.0058 29.9414 12.3632 29.5781L15 26.871L17.6367 29.5781C17.9941 29.9414 18.5156 30.0878 19.0078 29.9531C19.5 29.8183 19.8808 29.4316 20.0097 28.9394L20.9355 25.2773L24.5683 26.3027C25.0605 26.4433 25.5878 26.3027 25.9453 25.9453C26.3027 25.5878 26.4433 25.0605 26.3027 24.5683L25.2773 20.9355L28.9394 20.0097C29.4316 19.8867 29.8183 19.5 29.9531 19.0078C30.0878 18.5156 29.9414 17.9941 29.5781 17.6367L26.871 15L29.5781 12.3632C29.9414 12.0058 30.0878 11.4843 29.9531 10.9921C29.8183 10.5 29.4316 10.1191 28.9394 9.99019L25.2773 9.06441L26.3027 5.43159C26.4433 4.93941 26.3027 4.41206 25.9453 4.05464C25.5878 3.69722 25.0605 3.55659 24.5683 3.69722L20.9355 4.72261L20.0039 1.0605C19.8808 0.568312 19.4941 0.181593 19.0019 0.0468275C18.5097 -0.0879381 17.9882 0.0585463 17.6367 0.427687L15 3.13472L12.3632 0.427687Z" fill="#D9D9D9"/>
</g>
<defs>
<clipPath id="clip0_35_218">
<rect width="30" height="30" fill="white"/>
</clipPath>
</defs>
</svg>
