<svg xmlns="http://www.w3.org/2000/svg" xmlns:xlink="http://www.w3.org/1999/xlink" width="500" zoomAndPan="magnify" viewBox="0 0 375 374.999991" height="500" preserveAspectRatio="xMidYMid meet" version="1.0"><defs><clipPath id="1ebec16bab"><path d="M 72.019531 88 L 303 88 L 303 350.144531 L 72.019531 350.144531 Z M 72.019531 88 " clip-rule="nonzero"/></clipPath><clipPath id="404c7ad6d8"><path d="M 126 24.644531 L 162 24.644531 L 162 69 L 126 69 Z M 126 24.644531 " clip-rule="nonzero"/></clipPath><clipPath id="d6db981244"><path d="M 168 24.644531 L 204 24.644531 L 204 70 L 168 70 Z M 168 24.644531 " clip-rule="nonzero"/></clipPath><clipPath id="ca4f54c680"><path d="M 210 24.644531 L 246 24.644531 L 246 70 L 210 70 Z M 210 24.644531 " clip-rule="nonzero"/></clipPath></defs><g clip-path="url(#1ebec16bab)"><path fill="#264de4" d="M 187.421875 350.136719 L 93.175781 323.996094 L 72.171875 88.617188 L 302.949219 88.613281 L 281.933594 323.957031 L 187.425781 350.132812 Z M 187.421875 350.136719 " fill-opacity="1" fill-rule="nonzero"/></g><path fill="#2965f1" d="M 263.9375 308.972656 L 281.902344 107.859375 L 187.566406 107.855469 L 187.566406 330.121094 L 263.9375 308.96875 Z M 263.9375 308.972656 " fill-opacity="1" fill-rule="nonzero"/><path fill="#ebebeb" d="M 120.324219 195.160156 L 122.910156 224.023438 L 187.566406 224.023438 L 187.566406 195.160156 Z M 120.324219 195.160156 " fill-opacity="1" fill-rule="nonzero"/><path fill="#ebebeb" d="M 115.121094 136.722656 L 117.746094 165.59375 L 187.566406 165.59375 L 187.566406 136.722656 Z M 115.121094 136.722656 " fill-opacity="1" fill-rule="nonzero"/><path fill="#ebebeb" d="M 187.566406 270.132812 L 187.441406 270.167969 L 155.261719 261.480469 L 153.207031 238.457031 L 124.203125 238.457031 L 128.25 283.789062 L 187.429688 300.203125 L 187.566406 300.167969 Z M 187.566406 270.132812 " fill-opacity="1" fill-rule="nonzero"/><g clip-path="url(#404c7ad6d8)"><path fill="#000000" d="M 126.488281 24.644531 L 161.480469 24.644531 L 161.480469 39.265625 L 141.121094 39.265625 L 141.121094 53.890625 L 161.480469 53.890625 L 161.480469 68.511719 L 126.488281 68.511719 Z M 126.488281 24.644531 " fill-opacity="1" fill-rule="nonzero"/></g><g clip-path="url(#d6db981244)"><path fill="#000000" d="M 168.480469 24.644531 L 203.46875 24.644531 L 203.46875 37.359375 L 183.117188 37.359375 L 183.117188 39.902344 L 203.46875 39.902344 L 203.46875 69.144531 L 168.480469 69.144531 L 168.480469 55.796875 L 188.84375 55.796875 L 188.84375 53.253906 L 168.480469 53.253906 Z M 168.480469 24.644531 " fill-opacity="1" fill-rule="nonzero"/></g><g clip-path="url(#ca4f54c680)"><path fill="#000000" d="M 210.472656 24.644531 L 245.464844 24.644531 L 245.464844 37.359375 L 225.101562 37.359375 L 225.101562 39.902344 L 245.464844 39.902344 L 245.464844 69.144531 L 210.472656 69.144531 L 210.472656 55.796875 L 230.828125 55.796875 L 230.828125 53.253906 L 210.472656 53.253906 Z M 210.472656 24.644531 " fill-opacity="1" fill-rule="nonzero"/></g><path fill="#ffffff" d="M 254.628906 195.160156 L 259.839844 136.722656 L 187.46875 136.722656 L 187.46875 165.59375 L 228.175781 165.59375 L 225.554688 195.160156 L 187.46875 195.160156 L 187.46875 224.023438 L 223.046875 224.023438 L 219.691406 261.460938 L 187.46875 270.15625 L 187.46875 300.1875 L 246.695312 283.789062 L 247.128906 278.90625 L 253.921875 202.90625 Z M 254.628906 195.160156 " fill-opacity="1" fill-rule="nonzero"/></svg>