<svg xmlns="http://www.w3.org/2000/svg" xmlns:xlink="http://www.w3.org/1999/xlink" width="500" zoomAndPan="magnify" viewBox="0 0 375 374.999991" height="500" preserveAspectRatio="xMidYMid meet" version="1.0"><defs><clipPath id="4a7c15cf08"><path d="M 64.425781 82 L 310.425781 82 L 310.425781 361.183594 L 64.425781 361.183594 Z M 64.425781 82 " clip-rule="nonzero"/></clipPath><clipPath id="daead796a6"><path d="M 87 13.933594 L 134 13.933594 L 134 61 L 87 61 Z M 87 13.933594 " clip-rule="nonzero"/></clipPath><clipPath id="37c987302a"><path d="M 139 13.933594 L 184 13.933594 L 184 61 L 139 61 Z M 139 13.933594 " clip-rule="nonzero"/></clipPath><clipPath id="c1c1d1e1cf"><path d="M 189 13.933594 L 243 13.933594 L 243 61 L 189 61 Z M 189 13.933594 " clip-rule="nonzero"/></clipPath><clipPath id="f9886ace9e"><path d="M 250 13.933594 L 288 13.933594 L 288 61 L 250 61 Z M 250 13.933594 " clip-rule="nonzero"/></clipPath></defs><g clip-path="url(#4a7c15cf08)"><path fill="#e44d26" d="M 310.359375 82.171875 L 287.96875 333.242188 L 187.320312 361.167969 L 86.949219 333.28125 L 64.582031 82.171875 L 310.355469 82.167969 L 310.363281 82.167969 Z M 310.359375 82.171875 " fill-opacity="1" fill-rule="nonzero"/></g><path fill="#f16529" d="M 187.472656 339.824219 L 268.804688 317.257812 L 287.941406 102.707031 L 187.472656 102.703125 Z M 187.472656 339.824219 " fill-opacity="1" fill-rule="nonzero"/><path fill="#ebebeb" d="M 143.945312 164.296875 L 187.472656 164.296875 L 187.472656 133.496094 L 110.316406 133.496094 L 111.054688 141.761719 L 118.617188 226.632812 L 187.472656 226.632812 L 187.472656 195.839844 L 146.757812 195.839844 Z M 143.945312 164.296875 " fill-opacity="1" fill-rule="nonzero"/><path fill="#ebebeb" d="M 150.878906 242.03125 L 119.992188 242.03125 L 124.300781 290.390625 L 187.328125 307.902344 L 187.472656 307.867188 L 187.472656 275.820312 L 187.339844 275.859375 L 153.070312 266.59375 Z M 150.878906 242.03125 " fill-opacity="1" fill-rule="nonzero"/><g clip-path="url(#daead796a6)"><path fill="#000000" d="M 87.449219 13.933594 L 103.085938 13.933594 L 103.085938 29.394531 L 117.390625 29.394531 L 117.390625 13.933594 L 133.027344 13.933594 L 133.027344 60.757812 L 117.390625 60.757812 L 117.390625 45.078125 L 103.085938 45.078125 L 103.085938 60.757812 L 87.449219 60.757812 Z M 87.449219 13.933594 " fill-opacity="1" fill-rule="nonzero"/></g><g clip-path="url(#37c987302a)"><path fill="#000000" d="M 153.589844 29.460938 L 139.824219 29.460938 L 139.824219 13.933594 L 183.003906 13.933594 L 183.003906 29.460938 L 169.226562 29.460938 L 169.226562 60.757812 L 153.589844 60.757812 Z M 153.589844 29.460938 " fill-opacity="1" fill-rule="nonzero"/></g><g clip-path="url(#c1c1d1e1cf)"><path fill="#000000" d="M 189.851562 13.933594 L 206.152344 13.933594 L 216.183594 30.386719 L 226.203125 13.933594 L 242.515625 13.933594 L 242.515625 60.757812 L 226.945312 60.757812 L 226.945312 37.546875 L 216.183594 54.199219 L 215.914062 54.199219 L 205.152344 37.546875 L 205.152344 60.757812 L 189.851562 60.757812 Z M 189.851562 13.933594 " fill-opacity="1" fill-rule="nonzero"/></g><g clip-path="url(#f9886ace9e)"><path fill="#000000" d="M 250.296875 13.933594 L 265.933594 13.933594 L 265.933594 45.28125 L 287.929688 45.28125 L 287.929688 60.757812 L 250.296875 60.757812 Z M 250.296875 13.933594 " fill-opacity="1" fill-rule="nonzero"/></g><path fill="#ffffff" d="M 187.367188 226.632812 L 225.257812 226.632812 L 221.683594 266.574219 L 187.367188 275.851562 L 187.367188 307.882812 L 250.441406 290.390625 L 250.90625 285.183594 L 258.140625 204.105469 L 258.894531 195.839844 L 187.367188 195.839844 Z M 187.367188 226.632812 " fill-opacity="1" fill-rule="nonzero"/><path fill="#ffffff" d="M 187.367188 164.222656 L 187.367188 164.296875 L 261.6875 164.296875 L 262.304688 157.375 L 263.710938 141.761719 L 264.441406 133.496094 L 187.367188 133.496094 Z M 187.367188 164.222656 " fill-opacity="1" fill-rule="nonzero"/></svg>