<svg xmlns="http://www.w3.org/2000/svg" xmlns:xlink="http://www.w3.org/1999/xlink" width="500" zoomAndPan="magnify" viewBox="0 0 375 374.999991" height="500" preserveAspectRatio="xMidYMid meet" version="1.0"><defs><clipPath id="90f2fcf309"><path d="M 45.140625 45.140625 L 330.140625 45.140625 L 330.140625 330 L 45.140625 330 Z M 45.140625 45.140625 " clip-rule="nonzero"/></clipPath><clipPath id="c60c5df5b7"><path d="M 45.140625 45.140625 L 189 45.140625 L 189 330 L 45.140625 330 Z M 45.140625 45.140625 " clip-rule="nonzero"/></clipPath></defs><g clip-path="url(#90f2fcf309)"><path fill="#ffc44d" d="M 55.746094 44.476562 C 52.894531 44.476562 50.179688 45.703125 48.292969 47.839844 C 46.40625 49.976562 45.527344 52.824219 45.878906 55.652344 L 72.390625 267.746094 C 72.804688 271.046875 74.839844 273.917969 77.8125 275.40625 L 183.859375 328.429688 C 186.65625 329.828125 189.953125 329.828125 192.75 328.429688 L 298.796875 275.40625 C 301.769531 273.917969 303.804688 271.046875 304.214844 267.746094 L 330.726562 55.652344 C 331.082031 52.824219 330.203125 49.976562 328.316406 47.839844 C 326.429688 45.703125 323.714844 44.476562 320.863281 44.476562 Z M 55.746094 44.476562 " fill-opacity="1" fill-rule="nonzero"/></g><g clip-path="url(#c60c5df5b7)"><path fill="#e5b045" d="M 188.304688 44.476562 L 188.304688 329.476562 C 186.78125 329.476562 185.257812 329.128906 183.859375 328.429688 L 77.8125 275.40625 C 74.839844 273.917969 72.804688 271.046875 72.390625 267.746094 L 45.878906 55.652344 C 45.527344 52.824219 46.40625 49.976562 48.292969 47.839844 C 50.179688 45.703125 52.894531 44.476562 55.746094 44.476562 Z M 188.304688 44.476562 " fill-opacity="1" fill-rule="evenodd"/></g><path fill="#cfd8dc" d="M 168.421875 84.246094 C 173.914062 84.246094 178.363281 88.695312 178.363281 94.1875 L 178.363281 266.511719 C 178.363281 270.058594 176.476562 273.332031 173.410156 275.113281 C 170.347656 276.890625 166.566406 276.902344 163.488281 275.144531 L 117.09375 248.632812 C 112.328125 245.910156 110.671875 239.835938 113.394531 235.070312 C 116.117188 230.300781 122.191406 228.644531 126.960938 231.371094 L 158.480469 249.382812 L 158.480469 94.1875 C 158.480469 88.695312 162.929688 84.246094 168.421875 84.246094 Z M 168.421875 84.246094 " fill-opacity="1" fill-rule="evenodd"/><path fill="#eceff1" d="M 198.25 94.1875 C 198.25 88.695312 202.699219 84.246094 208.191406 84.246094 L 274.46875 84.246094 C 279.960938 84.246094 284.410156 88.695312 284.410156 94.1875 C 284.410156 99.679688 279.960938 104.128906 274.46875 104.128906 L 218.132812 104.128906 L 218.132812 167.957031 L 265.683594 157.390625 C 268.78125 156.699219 272.023438 157.535156 274.40625 159.628906 C 276.789062 161.726562 278.03125 164.832031 277.742188 167.996094 L 271.113281 240.902344 C 270.804688 244.332031 268.738281 247.355469 265.660156 248.894531 L 212.636719 275.40625 C 207.726562 277.863281 201.753906 275.871094 199.296875 270.960938 C 196.84375 266.046875 198.832031 260.078125 203.746094 257.621094 L 251.8125 233.585938 L 256.707031 179.753906 L 210.347656 190.054688 C 207.402344 190.710938 204.320312 189.992188 201.96875 188.105469 C 199.617188 186.21875 198.25 183.367188 198.25 180.351562 Z M 198.25 94.1875 " fill-opacity="1" fill-rule="evenodd"/></svg>