<svg xmlns="http://www.w3.org/2000/svg" xmlns:xlink="http://www.w3.org/1999/xlink" width="500" zoomAndPan="magnify" viewBox="0 0 375 374.999991" height="500" preserveAspectRatio="xMidYMid meet" version="1.0"><defs><g/><clipPath id="9218ce017a"><path d="M 54.296875 20.996094 L 320.546875 20.996094 L 320.546875 353.996094 L 54.296875 353.996094 Z M 54.296875 20.996094 " clip-rule="nonzero"/></clipPath><clipPath id="2cf632b6e5"><path d="M 234 79 L 320.546875 79 L 320.546875 171 L 234 171 Z M 234 79 " clip-rule="nonzero"/></clipPath><clipPath id="1581e7a2d5"><path d="M 220 20.996094 L 320.546875 20.996094 L 320.546875 121 L 220 121 Z M 220 20.996094 " clip-rule="nonzero"/></clipPath></defs><g clip-path="url(#9218ce017a)"><path fill="#de3b38" d="M 87.578125 20.996094 L 220.703125 20.996094 L 270.625 70.945312 L 320.546875 120.898438 L 320.546875 320.695312 C 320.546875 321.789062 320.492188 322.875 320.386719 323.960938 C 320.277344 325.046875 320.121094 326.125 319.90625 327.195312 C 319.695312 328.261719 319.429688 329.320312 319.113281 330.363281 C 318.796875 331.40625 318.429688 332.433594 318.011719 333.441406 C 317.597656 334.449219 317.128906 335.433594 316.617188 336.394531 C 316.101562 337.355469 315.542969 338.289062 314.9375 339.199219 C 314.332031 340.105469 313.683594 340.980469 312.992188 341.820312 C 312.300781 342.664062 311.570312 343.472656 310.796875 344.242188 C 310.027344 345.015625 309.222656 345.746094 308.378906 346.4375 C 307.535156 347.128906 306.660156 347.777344 305.753906 348.386719 C 304.847656 348.992188 303.914062 349.550781 302.953125 350.066406 C 301.992188 350.578125 301.007812 351.042969 300 351.460938 C 298.996094 351.878906 297.96875 352.246094 296.925781 352.5625 C 295.882812 352.878906 294.828125 353.144531 293.757812 353.355469 C 292.6875 353.570312 291.613281 353.730469 290.527344 353.835938 C 289.441406 353.945312 288.355469 353.996094 287.265625 353.996094 L 87.578125 353.996094 C 86.488281 353.996094 85.402344 353.945312 84.316406 353.835938 C 83.234375 353.730469 82.15625 353.570312 81.085938 353.355469 C 80.019531 353.144531 78.960938 352.878906 77.917969 352.5625 C 76.875 352.246094 75.851562 351.878906 74.84375 351.460938 C 73.835938 351.042969 72.851562 350.578125 71.890625 350.066406 C 70.929688 349.550781 69.996094 348.992188 69.089844 348.386719 C 68.183594 347.777344 67.308594 347.128906 66.464844 346.4375 C 65.625 345.746094 64.816406 345.015625 64.046875 344.242188 C 63.277344 343.472656 62.542969 342.664062 61.851562 341.820312 C 61.160156 340.980469 60.511719 340.105469 59.90625 339.199219 C 59.300781 338.289062 58.742188 337.355469 58.226562 336.394531 C 57.714844 335.433594 57.25 334.449219 56.832031 333.441406 C 56.414062 332.433594 56.046875 331.40625 55.730469 330.363281 C 55.414062 329.320312 55.152344 328.261719 54.9375 327.195312 C 54.726562 326.125 54.566406 325.046875 54.457031 323.960938 C 54.351562 322.875 54.296875 321.789062 54.296875 320.695312 L 54.296875 54.296875 C 54.296875 53.207031 54.351562 52.117188 54.457031 51.03125 C 54.566406 49.949219 54.726562 48.871094 54.9375 47.800781 C 55.152344 46.730469 55.414062 45.675781 55.730469 44.628906 C 56.046875 43.585938 56.414062 42.5625 56.832031 41.554688 C 57.25 40.546875 57.714844 39.5625 58.226562 38.597656 C 58.742188 37.636719 59.300781 36.703125 59.90625 35.796875 C 60.511719 34.890625 61.160156 34.015625 61.851562 33.171875 C 62.542969 32.328125 63.277344 31.519531 64.046875 30.75 C 64.816406 29.980469 65.625 29.246094 66.464844 28.554688 C 67.308594 27.863281 68.183594 27.214844 69.089844 26.609375 C 69.996094 26.003906 70.929688 25.441406 71.890625 24.929688 C 72.851562 24.414062 73.835938 23.949219 74.84375 23.53125 C 75.851562 23.113281 76.875 22.746094 77.917969 22.429688 C 78.960938 22.113281 80.019531 21.847656 81.085938 21.636719 C 82.15625 21.425781 83.234375 21.265625 84.316406 21.15625 C 85.402344 21.050781 86.488281 20.996094 87.578125 20.996094 Z M 87.578125 20.996094 " fill-opacity="1" fill-rule="nonzero"/></g><g fill="#ffffff" fill-opacity="1"><g transform="translate(87.579666, 261.922394)"><g><path d="M 63.1875 -46.984375 C 63.1875 -42.554688 62.175781 -38.601562 60.15625 -35.125 C 58.144531 -31.644531 55.257812 -28.953125 51.5 -27.046875 C 47.75 -25.148438 43.289062 -24.203125 38.125 -24.203125 L 21.0625 -24.203125 L 21.0625 0 L 6.671875 0 L 6.671875 -68.734375 L 37.53125 -68.734375 C 45.757812 -68.734375 52.09375 -66.835938 56.53125 -63.046875 C 60.96875 -59.265625 63.1875 -53.910156 63.1875 -46.984375 Z M 48.703125 -46.734375 C 48.703125 -53.953125 44.445312 -57.5625 35.9375 -57.5625 L 21.0625 -57.5625 L 21.0625 -35.265625 L 36.3125 -35.265625 C 40.28125 -35.265625 43.335938 -36.25 45.484375 -38.21875 C 47.628906 -40.1875 48.703125 -43.023438 48.703125 -46.734375 Z M 48.703125 -46.734375 "/></g></g></g><g fill="#ffffff" fill-opacity="1"><g transform="translate(154.167824, 261.922394)"><g><path d="M 67.90625 -34.875 C 67.90625 -27.789062 66.515625 -21.601562 63.734375 -16.3125 C 60.960938 -11.03125 57.03125 -6.988281 51.9375 -4.1875 C 46.851562 -1.394531 41.03125 0 34.46875 0 L 6.671875 0 L 6.671875 -68.734375 L 31.546875 -68.734375 C 43.109375 -68.734375 52.054688 -65.8125 58.390625 -59.96875 C 64.734375 -54.132812 67.90625 -45.769531 67.90625 -34.875 Z M 53.4375 -34.875 C 53.4375 -42.257812 51.515625 -47.894531 47.671875 -51.78125 C 43.835938 -55.664062 38.363281 -57.609375 31.25 -57.609375 L 21.0625 -57.609375 L 21.0625 -11.125 L 33.25 -11.125 C 39.425781 -11.125 44.332031 -13.253906 47.96875 -17.515625 C 51.613281 -21.773438 53.4375 -27.5625 53.4375 -34.875 Z M 53.4375 -34.875 "/></g></g></g><g fill="#ffffff" fill-opacity="1"><g transform="translate(226.264373, 261.922394)"><g><path d="M 21.0625 -57.609375 L 21.0625 -36.34375 L 56.203125 -36.34375 L 56.203125 -25.21875 L 21.0625 -25.21875 L 21.0625 0 L 6.671875 0 L 6.671875 -68.734375 L 57.328125 -68.734375 L 57.328125 -57.609375 Z M 21.0625 -57.609375 "/></g></g></g><g clip-path="url(#2cf632b6e5)"><path fill="#d13532" d="M 320.546875 170.179688 L 234.347656 114.570312 L 277.449219 79.769531 L 320.546875 120.898438 Z M 320.546875 170.179688 " fill-opacity="1" fill-rule="nonzero"/></g><g clip-path="url(#1581e7a2d5)"><path fill="#d56c6f" d="M 220.703125 20.996094 L 220.703125 87.597656 C 220.703125 88.6875 220.757812 89.777344 220.863281 90.859375 C 220.96875 91.945312 221.128906 93.023438 221.34375 94.09375 C 221.554688 95.164062 221.820312 96.21875 222.136719 97.261719 C 222.453125 98.308594 222.820312 99.332031 223.238281 100.339844 C 223.652344 101.347656 224.121094 102.332031 224.632812 103.292969 C 225.148438 104.257812 225.707031 105.191406 226.3125 106.097656 C 226.917969 107.003906 227.566406 107.878906 228.257812 108.722656 C 228.949219 109.566406 229.679688 110.371094 230.453125 111.144531 C 231.222656 111.914062 232.027344 112.644531 232.871094 113.339844 C 233.714844 114.03125 234.589844 114.679688 235.496094 115.285156 C 236.402344 115.890625 237.335938 116.449219 238.296875 116.964844 C 239.257812 117.480469 240.242188 117.945312 241.25 118.363281 C 242.253906 118.78125 243.28125 119.144531 244.324219 119.464844 C 245.367188 119.78125 246.421875 120.042969 247.492188 120.257812 C 248.5625 120.46875 249.636719 120.628906 250.722656 120.738281 C 251.808594 120.84375 252.894531 120.898438 253.984375 120.898438 L 320.546875 120.898438 Z M 220.703125 20.996094 " fill-opacity="1" fill-rule="nonzero"/></g></svg>