<svg xmlns="http://www.w3.org/2000/svg" xmlns:xlink="http://www.w3.org/1999/xlink" width="500" zoomAndPan="magnify" viewBox="0 0 375 374.999991" height="500" preserveAspectRatio="xMidYMid meet" version="1.0"><defs><clipPath id="ff66fe8c21"><path d="M 20.621094 99.511719 L 354.371094 99.511719 L 354.371094 275.761719 L 20.621094 275.761719 Z M 20.621094 99.511719 " clip-rule="nonzero"/></clipPath><clipPath id="9966184b9b"><path d="M 354.371094 187.636719 C 354.371094 189.074219 354.304688 190.511719 354.171875 191.945312 C 354.039062 193.382812 353.835938 194.816406 353.570312 196.25 C 353.300781 197.679688 352.96875 199.105469 352.566406 200.53125 C 352.164062 201.953125 351.699219 203.367188 351.164062 204.78125 C 350.632812 206.191406 350.035156 207.59375 349.371094 208.988281 C 348.707031 210.382812 347.980469 211.769531 347.1875 213.144531 C 346.394531 214.519531 345.539062 215.886719 344.617188 217.242188 C 343.699219 218.59375 342.714844 219.9375 341.667969 221.265625 C 340.625 222.59375 339.519531 223.910156 338.351562 225.207031 C 337.183594 226.507812 335.957031 227.792969 334.667969 229.0625 C 333.378906 230.328125 332.035156 231.582031 330.628906 232.8125 C 329.226562 234.046875 327.765625 235.261719 326.25 236.457031 C 324.730469 237.65625 323.160156 238.828125 321.53125 239.984375 C 319.90625 241.140625 318.226562 242.273438 316.492188 243.386719 C 314.761719 244.496094 312.976562 245.585938 311.144531 246.652344 C 309.308594 247.71875 307.425781 248.757812 305.496094 249.777344 C 303.566406 250.792969 301.585938 251.785156 299.5625 252.75 C 297.539062 253.714844 295.472656 254.65625 293.363281 255.566406 C 291.25 256.480469 289.097656 257.363281 286.90625 258.222656 C 284.710938 259.078125 282.480469 259.90625 280.207031 260.703125 C 277.9375 261.503906 275.628906 262.273438 273.289062 263.011719 C 270.945312 263.75 268.570312 264.460938 266.160156 265.136719 C 263.753906 265.816406 261.3125 266.460938 258.84375 267.078125 C 256.375 267.691406 253.878906 268.273438 251.359375 268.824219 C 248.835938 269.375 246.289062 269.894531 243.714844 270.378906 C 241.144531 270.863281 238.550781 271.3125 235.9375 271.730469 C 233.324219 272.148438 230.695312 272.53125 228.042969 272.882812 C 225.394531 273.230469 222.730469 273.546875 220.054688 273.828125 C 217.375 274.105469 214.683594 274.351562 211.984375 274.5625 C 209.28125 274.773438 206.570312 274.949219 203.855469 275.09375 C 201.136719 275.234375 198.414062 275.339844 195.683594 275.410156 C 192.957031 275.480469 190.226562 275.515625 187.496094 275.515625 C 184.765625 275.515625 182.035156 275.480469 179.308594 275.410156 C 176.582031 275.339844 173.859375 275.234375 171.140625 275.09375 C 168.421875 274.949219 165.714844 274.773438 163.011719 274.5625 C 160.308594 274.351562 157.621094 274.105469 154.941406 273.828125 C 152.261719 273.546875 149.597656 273.230469 146.949219 272.882812 C 144.300781 272.53125 141.667969 272.148438 139.054688 271.730469 C 136.441406 271.3125 133.851562 270.863281 131.277344 270.378906 C 128.707031 269.894531 126.160156 269.375 123.636719 268.824219 C 121.113281 268.273438 118.617188 267.691406 116.148438 267.078125 C 113.679688 266.460938 111.242188 265.816406 108.832031 265.136719 C 106.425781 264.460938 104.050781 263.75 101.707031 263.011719 C 99.363281 262.273438 97.058594 261.503906 94.785156 260.703125 C 92.515625 259.90625 90.285156 259.078125 88.089844 258.222656 C 85.894531 257.363281 83.742188 256.480469 81.632812 255.566406 C 79.523438 254.65625 77.453125 253.714844 75.429688 252.75 C 73.40625 251.785156 71.429688 250.792969 69.5 249.777344 C 67.566406 248.757812 65.683594 247.71875 63.851562 246.652344 C 62.015625 245.585938 60.234375 244.496094 58.5 243.386719 C 56.769531 242.273438 55.089844 241.140625 53.460938 239.984375 C 51.835938 238.828125 50.261719 237.65625 48.746094 236.457031 C 47.230469 235.261719 45.769531 234.046875 44.363281 232.8125 C 42.960938 231.582031 41.613281 230.328125 40.328125 229.0625 C 39.039062 227.792969 37.8125 226.507812 36.644531 225.207031 C 35.476562 223.910156 34.371094 222.59375 33.324219 221.265625 C 32.28125 219.9375 31.296875 218.59375 30.378906 217.242188 C 29.457031 215.886719 28.601562 214.519531 27.808594 213.144531 C 27.015625 211.769531 26.285156 210.382812 25.625 208.988281 C 24.960938 207.59375 24.363281 206.191406 23.828125 204.78125 C 23.296875 203.367188 22.828125 201.953125 22.429688 200.53125 C 22.027344 199.105469 21.695312 197.679688 21.425781 196.25 C 21.160156 194.816406 20.957031 193.382812 20.824219 191.945312 C 20.6875 190.511719 20.621094 189.074219 20.621094 187.636719 C 20.621094 186.195312 20.6875 184.757812 20.824219 183.324219 C 20.957031 181.886719 21.160156 180.453125 21.425781 179.019531 C 21.695312 177.589844 22.027344 176.164062 22.429688 174.742188 C 22.828125 173.316406 23.296875 171.902344 23.828125 170.492188 C 24.363281 169.078125 24.960938 167.675781 25.625 166.28125 C 26.285156 164.886719 27.015625 163.5 27.808594 162.125 C 28.601562 160.75 29.457031 159.382812 30.378906 158.027344 C 31.296875 156.675781 32.28125 155.332031 33.324219 154.003906 C 34.371094 152.675781 35.476562 151.363281 36.644531 150.0625 C 37.8125 148.761719 39.039062 147.476562 40.328125 146.207031 C 41.613281 144.941406 42.960938 143.6875 44.363281 142.457031 C 45.769531 141.222656 47.230469 140.007812 48.746094 138.8125 C 50.261719 137.617188 51.835938 136.441406 53.460938 135.285156 C 55.089844 134.128906 56.769531 132.996094 58.5 131.882812 C 60.234375 130.773438 62.015625 129.683594 63.851562 128.617188 C 65.683594 127.554688 67.566406 126.511719 69.5 125.496094 C 71.429688 124.476562 73.40625 123.484375 75.429688 122.519531 C 77.453125 121.554688 79.523438 120.617188 81.632812 119.703125 C 83.742188 118.789062 85.894531 117.90625 88.089844 117.050781 C 90.285156 116.191406 92.515625 115.363281 94.785156 114.566406 C 97.058594 113.765625 99.363281 112.996094 101.707031 112.257812 C 104.050781 111.519531 106.425781 110.808594 108.832031 110.132812 C 111.242188 109.453125 113.679688 108.808594 116.148438 108.191406 C 118.617188 107.578125 121.113281 106.996094 123.636719 106.445312 C 126.160156 105.894531 128.707031 105.375 131.277344 104.890625 C 133.851562 104.40625 136.441406 103.957031 139.054688 103.539062 C 141.667969 103.121094 144.300781 102.738281 146.949219 102.386719 C 149.597656 102.039062 152.261719 101.722656 154.941406 101.445312 C 157.621094 101.164062 160.308594 100.917969 163.011719 100.707031 C 165.714844 100.496094 168.421875 100.320312 171.140625 100.179688 C 173.859375 100.039062 176.582031 99.929688 179.308594 99.859375 C 182.035156 99.789062 184.765625 99.753906 187.496094 99.753906 C 190.226562 99.753906 192.957031 99.789062 195.683594 99.859375 C 198.414062 99.929688 201.136719 100.039062 203.855469 100.179688 C 206.570312 100.320312 209.28125 100.496094 211.984375 100.707031 C 214.683594 100.917969 217.375 101.164062 220.054688 101.445312 C 222.730469 101.722656 225.394531 102.039062 228.042969 102.386719 C 230.695312 102.738281 233.324219 103.121094 235.9375 103.539062 C 238.550781 103.957031 241.144531 104.40625 243.714844 104.890625 C 246.289062 105.375 248.835938 105.894531 251.359375 106.445312 C 253.878906 106.996094 256.375 107.578125 258.84375 108.191406 C 261.3125 108.808594 263.753906 109.453125 266.160156 110.132812 C 268.570312 110.808594 270.945312 111.519531 273.289062 112.257812 C 275.628906 112.996094 277.9375 113.765625 280.207031 114.566406 C 282.480469 115.363281 284.710938 116.191406 286.90625 117.050781 C 289.097656 117.90625 291.25 118.789062 293.363281 119.703125 C 295.472656 120.617188 297.539062 121.554688 299.5625 122.519531 C 301.585938 123.484375 303.566406 124.476562 305.496094 125.496094 C 307.425781 126.511719 309.308594 127.554688 311.144531 128.617188 C 312.976562 129.683594 314.761719 130.773438 316.492188 131.882812 C 318.226562 132.996094 319.90625 134.128906 321.53125 135.285156 C 323.160156 136.441406 324.730469 137.617188 326.25 138.8125 C 327.765625 140.007812 329.226562 141.222656 330.628906 142.457031 C 332.035156 143.6875 333.378906 144.941406 334.667969 146.207031 C 335.957031 147.476562 337.183594 148.761719 338.351562 150.0625 C 339.519531 151.363281 340.625 152.675781 341.667969 154.003906 C 342.714844 155.332031 343.699219 156.675781 344.617188 158.027344 C 345.539062 159.382812 346.394531 160.75 347.1875 162.125 C 347.980469 163.5 348.707031 164.886719 349.371094 166.28125 C 350.035156 167.675781 350.632812 169.078125 351.164062 170.492188 C 351.699219 171.902344 352.164062 173.316406 352.566406 174.742188 C 352.96875 176.164062 353.300781 177.589844 353.570312 179.019531 C 353.835938 180.453125 354.039062 181.886719 354.171875 183.324219 C 354.304688 184.757812 354.371094 186.195312 354.371094 187.636719 Z M 354.371094 187.636719 " clip-rule="nonzero"/></clipPath><radialGradient gradientTransform="matrix(0.999201, 0, 0, 1.000799, 120.309313, 206.723095)" gradientUnits="userSpaceOnUse" r="219.324742" cx="0.505391" id="f17838093f" cy="-76.001888" fx="0.505391" fy="-76.001888"><stop stop-opacity="1" stop-color="rgb(99.725342%, 99.772644%, 99.839783%)" offset="0"/><stop stop-opacity="1" stop-color="rgb(99.176025%, 99.319458%, 99.520874%)" offset="0.00390625"/><stop stop-opacity="1" stop-color="rgb(98.628235%, 98.866272%, 99.201965%)" offset="0.0078125"/><stop stop-opacity="1" stop-color="rgb(98.078918%, 98.413086%, 98.883057%)" offset="0.0117188"/><stop stop-opacity="1" stop-color="rgb(97.531128%, 97.9599%, 98.564148%)" offset="0.015625"/><stop stop-opacity="1" stop-color="rgb(96.981812%, 97.506714%, 98.245239%)" offset="0.0195312"/><stop stop-opacity="1" stop-color="rgb(96.434021%, 97.053528%, 97.926331%)" offset="0.0234375"/><stop stop-opacity="1" stop-color="rgb(95.88623%, 96.600342%, 97.607422%)" offset="0.0273438"/><stop stop-opacity="1" stop-color="rgb(95.336914%, 96.147156%, 97.288513%)" offset="0.03125"/><stop stop-opacity="1" stop-color="rgb(94.789124%, 95.69397%, 96.97113%)" offset="0.0351562"/><stop stop-opacity="1" stop-color="rgb(94.239807%, 95.240784%, 96.652222%)" offset="0.0390625"/><stop stop-opacity="1" stop-color="rgb(93.692017%, 94.787598%, 96.333313%)" offset="0.0429688"/><stop stop-opacity="1" stop-color="rgb(93.1427%, 94.334412%, 96.014404%)" offset="0.046875"/><stop stop-opacity="1" stop-color="rgb(92.59491%, 93.881226%, 95.695496%)" offset="0.0507812"/><stop stop-opacity="1" stop-color="rgb(92.047119%, 93.42804%, 95.376587%)" offset="0.0546875"/><stop stop-opacity="1" stop-color="rgb(91.497803%, 92.974854%, 95.057678%)" offset="0.0585938"/><stop stop-opacity="1" stop-color="rgb(90.950012%, 92.521667%, 94.73877%)" offset="0.0625"/><stop stop-opacity="1" stop-color="rgb(90.400696%, 92.068481%, 94.419861%)" offset="0.0664062"/><stop stop-opacity="1" stop-color="rgb(89.852905%, 91.615295%, 94.100952%)" offset="0.0703125"/><stop stop-opacity="1" stop-color="rgb(89.303589%, 91.162109%, 93.783569%)" offset="0.0742188"/><stop stop-opacity="1" stop-color="rgb(88.755798%, 90.708923%, 93.464661%)" offset="0.078125"/><stop stop-opacity="1" stop-color="rgb(88.208008%, 90.255737%, 93.145752%)" offset="0.0820312"/><stop stop-opacity="1" stop-color="rgb(87.658691%, 89.802551%, 92.826843%)" offset="0.0859375"/><stop stop-opacity="1" stop-color="rgb(87.110901%, 89.349365%, 92.507935%)" offset="0.0898438"/><stop stop-opacity="1" stop-color="rgb(86.561584%, 88.897705%, 92.189026%)" offset="0.09375"/><stop stop-opacity="1" stop-color="rgb(86.013794%, 88.444519%, 91.870117%)" offset="0.0976562"/><stop stop-opacity="1" stop-color="rgb(85.464478%, 87.991333%, 91.551208%)" offset="0.101562"/><stop stop-opacity="1" stop-color="rgb(84.916687%, 87.538147%, 91.2323%)" offset="0.105469"/><stop stop-opacity="1" stop-color="rgb(84.368896%, 87.084961%, 90.914917%)" offset="0.109375"/><stop stop-opacity="1" stop-color="rgb(83.81958%, 86.631775%, 90.596008%)" offset="0.113281"/><stop stop-opacity="1" stop-color="rgb(83.27179%, 86.178589%, 90.2771%)" offset="0.117188"/><stop stop-opacity="1" stop-color="rgb(82.722473%, 85.725403%, 89.958191%)" offset="0.121094"/><stop stop-opacity="1" stop-color="rgb(82.174683%, 85.272217%, 89.639282%)" offset="0.125"/><stop stop-opacity="1" stop-color="rgb(81.626892%, 84.819031%, 89.320374%)" offset="0.128906"/><stop stop-opacity="1" stop-color="rgb(81.077576%, 84.365845%, 89.001465%)" offset="0.132812"/><stop stop-opacity="1" stop-color="rgb(80.529785%, 83.912659%, 88.682556%)" offset="0.136719"/><stop stop-opacity="1" stop-color="rgb(79.980469%, 83.459473%, 88.363647%)" offset="0.140625"/><stop stop-opacity="1" stop-color="rgb(79.432678%, 83.006287%, 88.044739%)" offset="0.144531"/><stop stop-opacity="1" stop-color="rgb(78.883362%, 82.553101%, 87.727356%)" offset="0.148438"/><stop stop-opacity="1" stop-color="rgb(78.335571%, 82.099915%, 87.408447%)" offset="0.152344"/><stop stop-opacity="1" stop-color="rgb(77.787781%, 81.646729%, 87.089539%)" offset="0.15625"/><stop stop-opacity="1" stop-color="rgb(77.238464%, 81.193542%, 86.77063%)" offset="0.160156"/><stop stop-opacity="1" stop-color="rgb(76.690674%, 80.740356%, 86.451721%)" offset="0.164062"/><stop stop-opacity="1" stop-color="rgb(76.141357%, 80.28717%, 86.132812%)" offset="0.167969"/><stop stop-opacity="1" stop-color="rgb(75.593567%, 79.833984%, 85.813904%)" offset="0.171875"/><stop stop-opacity="1" stop-color="rgb(75.04425%, 79.380798%, 85.494995%)" offset="0.175781"/><stop stop-opacity="1" stop-color="rgb(74.49646%, 78.927612%, 85.176086%)" offset="0.179688"/><stop stop-opacity="1" stop-color="rgb(73.948669%, 78.474426%, 84.857178%)" offset="0.183594"/><stop stop-opacity="1" stop-color="rgb(73.399353%, 78.02124%, 84.539795%)" offset="0.1875"/><stop stop-opacity="1" stop-color="rgb(72.851562%, 77.56958%, 84.220886%)" offset="0.191406"/><stop stop-opacity="1" stop-color="rgb(72.302246%, 77.116394%, 83.901978%)" offset="0.195312"/><stop stop-opacity="1" stop-color="rgb(71.754456%, 76.663208%, 83.583069%)" offset="0.199219"/><stop stop-opacity="1" stop-color="rgb(71.205139%, 76.210022%, 83.26416%)" offset="0.203125"/><stop stop-opacity="1" stop-color="rgb(70.657349%, 75.756836%, 82.945251%)" offset="0.207031"/><stop stop-opacity="1" stop-color="rgb(70.109558%, 75.30365%, 82.626343%)" offset="0.210938"/><stop stop-opacity="1" stop-color="rgb(69.560242%, 74.850464%, 82.307434%)" offset="0.214844"/><stop stop-opacity="1" stop-color="rgb(69.012451%, 74.397278%, 81.988525%)" offset="0.21875"/><stop stop-opacity="1" stop-color="rgb(68.463135%, 73.944092%, 81.671143%)" offset="0.222656"/><stop stop-opacity="1" stop-color="rgb(67.915344%, 73.490906%, 81.352234%)" offset="0.226562"/><stop stop-opacity="1" stop-color="rgb(67.366028%, 73.03772%, 81.033325%)" offset="0.230469"/><stop stop-opacity="1" stop-color="rgb(66.818237%, 72.584534%, 80.714417%)" offset="0.234375"/><stop stop-opacity="1" stop-color="rgb(66.270447%, 72.131348%, 80.395508%)" offset="0.238281"/><stop stop-opacity="1" stop-color="rgb(65.72113%, 71.678162%, 80.076599%)" offset="0.242188"/><stop stop-opacity="1" stop-color="rgb(65.17334%, 71.224976%, 79.75769%)" offset="0.246094"/><stop stop-opacity="1" stop-color="rgb(64.624023%, 70.77179%, 79.438782%)" offset="0.25"/><stop stop-opacity="1" stop-color="rgb(64.076233%, 70.318604%, 79.119873%)" offset="0.253906"/><stop stop-opacity="1" stop-color="rgb(63.528442%, 69.865417%, 78.800964%)" offset="0.257812"/><stop stop-opacity="1" stop-color="rgb(62.979126%, 69.412231%, 78.483582%)" offset="0.261719"/><stop stop-opacity="1" stop-color="rgb(62.431335%, 68.959045%, 78.164673%)" offset="0.265625"/><stop stop-opacity="1" stop-color="rgb(61.882019%, 68.505859%, 77.845764%)" offset="0.269531"/><stop stop-opacity="1" stop-color="rgb(61.334229%, 68.052673%, 77.526855%)" offset="0.273438"/><stop stop-opacity="1" stop-color="rgb(60.784912%, 67.599487%, 77.207947%)" offset="0.277344"/><stop stop-opacity="1" stop-color="rgb(60.237122%, 67.146301%, 76.889038%)" offset="0.28125"/><stop stop-opacity="1" stop-color="rgb(59.689331%, 66.693115%, 76.570129%)" offset="0.285156"/><stop stop-opacity="1" stop-color="rgb(59.140015%, 66.241455%, 76.251221%)" offset="0.289062"/><stop stop-opacity="1" stop-color="rgb(58.592224%, 65.788269%, 75.932312%)" offset="0.292969"/><stop stop-opacity="1" stop-color="rgb(58.042908%, 65.335083%, 75.614929%)" offset="0.296875"/><stop stop-opacity="1" stop-color="rgb(57.495117%, 64.881897%, 75.296021%)" offset="0.300781"/><stop stop-opacity="1" stop-color="rgb(56.945801%, 64.428711%, 74.977112%)" offset="0.304688"/><stop stop-opacity="1" stop-color="rgb(56.39801%, 63.975525%, 74.658203%)" offset="0.308594"/><stop stop-opacity="1" stop-color="rgb(55.85022%, 63.522339%, 74.339294%)" offset="0.3125"/><stop stop-opacity="1" stop-color="rgb(55.300903%, 63.069153%, 74.020386%)" offset="0.316406"/><stop stop-opacity="1" stop-color="rgb(54.753113%, 62.615967%, 73.701477%)" offset="0.320312"/><stop stop-opacity="1" stop-color="rgb(54.203796%, 62.162781%, 73.382568%)" offset="0.324219"/><stop stop-opacity="1" stop-color="rgb(53.656006%, 61.709595%, 73.06366%)" offset="0.328125"/><stop stop-opacity="1" stop-color="rgb(53.106689%, 61.256409%, 72.744751%)" offset="0.332031"/><stop stop-opacity="1" stop-color="rgb(52.558899%, 60.803223%, 72.427368%)" offset="0.335938"/><stop stop-opacity="1" stop-color="rgb(52.011108%, 60.350037%, 72.108459%)" offset="0.339844"/><stop stop-opacity="1" stop-color="rgb(51.461792%, 59.896851%, 71.789551%)" offset="0.34375"/><stop stop-opacity="1" stop-color="rgb(50.914001%, 59.443665%, 71.470642%)" offset="0.347656"/><stop stop-opacity="1" stop-color="rgb(50.364685%, 58.990479%, 71.151733%)" offset="0.351562"/><stop stop-opacity="1" stop-color="rgb(49.816895%, 58.537292%, 70.832825%)" offset="0.355469"/><stop stop-opacity="1" stop-color="rgb(49.267578%, 58.084106%, 70.513916%)" offset="0.359375"/><stop stop-opacity="1" stop-color="rgb(48.719788%, 57.63092%, 70.195007%)" offset="0.363281"/><stop stop-opacity="1" stop-color="rgb(48.171997%, 57.177734%, 69.876099%)" offset="0.367188"/><stop stop-opacity="1" stop-color="rgb(47.622681%, 56.724548%, 69.55719%)" offset="0.371094"/><stop stop-opacity="1" stop-color="rgb(47.07489%, 56.271362%, 69.239807%)" offset="0.375"/><stop stop-opacity="1" stop-color="rgb(46.525574%, 55.818176%, 68.920898%)" offset="0.378906"/><stop stop-opacity="1" stop-color="rgb(45.977783%, 55.36499%, 68.60199%)" offset="0.382812"/><stop stop-opacity="1" stop-color="rgb(45.429993%, 54.91333%, 68.283081%)" offset="0.386719"/><stop stop-opacity="1" stop-color="rgb(44.880676%, 54.460144%, 67.964172%)" offset="0.390625"/><stop stop-opacity="1" stop-color="rgb(44.332886%, 54.006958%, 67.645264%)" offset="0.394531"/><stop stop-opacity="1" stop-color="rgb(43.783569%, 53.553772%, 67.326355%)" offset="0.398438"/><stop stop-opacity="1" stop-color="rgb(43.235779%, 53.100586%, 67.007446%)" offset="0.402344"/><stop stop-opacity="1" stop-color="rgb(42.686462%, 52.6474%, 66.688538%)" offset="0.40625"/><stop stop-opacity="1" stop-color="rgb(42.138672%, 52.194214%, 66.371155%)" offset="0.410156"/><stop stop-opacity="1" stop-color="rgb(41.590881%, 51.741028%, 66.052246%)" offset="0.414062"/><stop stop-opacity="1" stop-color="rgb(41.041565%, 51.287842%, 65.733337%)" offset="0.417969"/><stop stop-opacity="1" stop-color="rgb(40.493774%, 50.834656%, 65.414429%)" offset="0.421875"/><stop stop-opacity="1" stop-color="rgb(39.944458%, 50.38147%, 65.09552%)" offset="0.425781"/><stop stop-opacity="1" stop-color="rgb(39.396667%, 49.928284%, 64.776611%)" offset="0.429688"/><stop stop-opacity="1" stop-color="rgb(38.847351%, 49.475098%, 64.457703%)" offset="0.433594"/><stop stop-opacity="1" stop-color="rgb(38.299561%, 49.021912%, 64.138794%)" offset="0.4375"/><stop stop-opacity="1" stop-color="rgb(37.75177%, 48.568726%, 63.819885%)" offset="0.441406"/><stop stop-opacity="1" stop-color="rgb(37.202454%, 48.11554%, 63.500977%)" offset="0.445312"/><stop stop-opacity="1" stop-color="rgb(36.654663%, 47.662354%, 63.183594%)" offset="0.449219"/><stop stop-opacity="1" stop-color="rgb(36.105347%, 47.209167%, 62.864685%)" offset="0.453125"/><stop stop-opacity="1" stop-color="rgb(35.557556%, 46.755981%, 62.545776%)" offset="0.457031"/><stop stop-opacity="1" stop-color="rgb(35.00824%, 46.302795%, 62.226868%)" offset="0.460938"/><stop stop-opacity="1" stop-color="rgb(34.460449%, 45.849609%, 61.907959%)" offset="0.464844"/><stop stop-opacity="1" stop-color="rgb(33.912659%, 45.396423%, 61.58905%)" offset="0.46875"/><stop stop-opacity="1" stop-color="rgb(33.363342%, 44.943237%, 61.270142%)" offset="0.472656"/><stop stop-opacity="1" stop-color="rgb(32.815552%, 44.490051%, 60.951233%)" offset="0.476562"/><stop stop-opacity="1" stop-color="rgb(32.266235%, 44.036865%, 60.632324%)" offset="0.480469"/><stop stop-opacity="1" stop-color="rgb(31.718445%, 43.585205%, 60.314941%)" offset="0.484375"/><stop stop-opacity="1" stop-color="rgb(31.170654%, 43.132019%, 59.996033%)" offset="0.488281"/><stop stop-opacity="1" stop-color="rgb(30.621338%, 42.678833%, 59.677124%)" offset="0.492188"/><stop stop-opacity="1" stop-color="rgb(30.073547%, 42.225647%, 59.358215%)" offset="0.496094"/><stop stop-opacity="1" stop-color="rgb(29.736328%, 41.882324%, 59.016418%)" offset="0.5"/><stop stop-opacity="1" stop-color="rgb(29.60968%, 41.648865%, 58.651733%)" offset="0.503906"/><stop stop-opacity="1" stop-color="rgb(29.484558%, 41.416931%, 58.287048%)" offset="0.507812"/><stop stop-opacity="1" stop-color="rgb(29.359436%, 41.183472%, 57.922363%)" offset="0.511719"/><stop stop-opacity="1" stop-color="rgb(29.232788%, 40.951538%, 57.556152%)" offset="0.515625"/><stop stop-opacity="1" stop-color="rgb(29.107666%, 40.718079%, 57.191467%)" offset="0.519531"/><stop stop-opacity="1" stop-color="rgb(28.981018%, 40.486145%, 56.826782%)" offset="0.523438"/><stop stop-opacity="1" stop-color="rgb(28.855896%, 40.252686%, 56.462097%)" offset="0.527344"/><stop stop-opacity="1" stop-color="rgb(28.729248%, 40.019226%, 56.097412%)" offset="0.53125"/><stop stop-opacity="1" stop-color="rgb(28.604126%, 39.787292%, 55.732727%)" offset="0.535156"/><stop stop-opacity="1" stop-color="rgb(28.477478%, 39.553833%, 55.368042%)" offset="0.539062"/><stop stop-opacity="1" stop-color="rgb(28.352356%, 39.321899%, 55.003357%)" offset="0.542969"/><stop stop-opacity="1" stop-color="rgb(28.227234%, 39.08844%, 54.638672%)" offset="0.546875"/><stop stop-opacity="1" stop-color="rgb(28.100586%, 38.856506%, 54.272461%)" offset="0.550781"/><stop stop-opacity="1" stop-color="rgb(27.975464%, 38.623047%, 53.907776%)" offset="0.554688"/><stop stop-opacity="1" stop-color="rgb(27.848816%, 38.389587%, 53.543091%)" offset="0.558594"/><stop stop-opacity="1" stop-color="rgb(27.723694%, 38.157654%, 53.178406%)" offset="0.5625"/><stop stop-opacity="1" stop-color="rgb(27.597046%, 37.924194%, 52.813721%)" offset="0.566406"/><stop stop-opacity="1" stop-color="rgb(27.471924%, 37.692261%, 52.449036%)" offset="0.570312"/><stop stop-opacity="1" stop-color="rgb(27.346802%, 37.458801%, 52.084351%)" offset="0.574219"/><stop stop-opacity="1" stop-color="rgb(27.220154%, 37.226868%, 51.719666%)" offset="0.578125"/><stop stop-opacity="1" stop-color="rgb(27.095032%, 36.993408%, 51.35498%)" offset="0.582031"/><stop stop-opacity="1" stop-color="rgb(26.968384%, 36.759949%, 50.990295%)" offset="0.585938"/><stop stop-opacity="1" stop-color="rgb(26.843262%, 36.528015%, 50.624084%)" offset="0.589844"/><stop stop-opacity="1" stop-color="rgb(26.716614%, 36.294556%, 50.259399%)" offset="0.59375"/><stop stop-opacity="1" stop-color="rgb(26.591492%, 36.062622%, 49.894714%)" offset="0.597656"/><stop stop-opacity="1" stop-color="rgb(26.46637%, 35.829163%, 49.530029%)" offset="0.601562"/><stop stop-opacity="1" stop-color="rgb(26.339722%, 35.595703%, 49.165344%)" offset="0.605469"/><stop stop-opacity="1" stop-color="rgb(26.2146%, 35.36377%, 48.800659%)" offset="0.609375"/><stop stop-opacity="1" stop-color="rgb(26.087952%, 35.13031%, 48.435974%)" offset="0.613281"/><stop stop-opacity="1" stop-color="rgb(25.96283%, 34.898376%, 48.071289%)" offset="0.617188"/><stop stop-opacity="1" stop-color="rgb(25.836182%, 34.664917%, 47.706604%)" offset="0.621094"/><stop stop-opacity="1" stop-color="rgb(25.71106%, 34.432983%, 47.340393%)" offset="0.625"/><stop stop-opacity="1" stop-color="rgb(25.585938%, 34.199524%, 46.975708%)" offset="0.628906"/><stop stop-opacity="1" stop-color="rgb(25.45929%, 33.966064%, 46.611023%)" offset="0.632812"/><stop stop-opacity="1" stop-color="rgb(25.334167%, 33.734131%, 46.246338%)" offset="0.636719"/><stop stop-opacity="1" stop-color="rgb(25.20752%, 33.500671%, 45.881653%)" offset="0.640625"/><stop stop-opacity="1" stop-color="rgb(25.082397%, 33.268738%, 45.516968%)" offset="0.644531"/><stop stop-opacity="1" stop-color="rgb(24.95575%, 33.035278%, 45.152283%)" offset="0.648438"/><stop stop-opacity="1" stop-color="rgb(24.830627%, 32.803345%, 44.787598%)" offset="0.652344"/><stop stop-opacity="1" stop-color="rgb(24.705505%, 32.569885%, 44.422913%)" offset="0.65625"/><stop stop-opacity="1" stop-color="rgb(24.578857%, 32.336426%, 44.058228%)" offset="0.660156"/><stop stop-opacity="1" stop-color="rgb(24.453735%, 32.104492%, 43.692017%)" offset="0.664062"/><stop stop-opacity="1" stop-color="rgb(24.327087%, 31.871033%, 43.327332%)" offset="0.667969"/><stop stop-opacity="1" stop-color="rgb(24.201965%, 31.639099%, 42.962646%)" offset="0.671875"/><stop stop-opacity="1" stop-color="rgb(24.075317%, 31.40564%, 42.597961%)" offset="0.675781"/><stop stop-opacity="1" stop-color="rgb(23.950195%, 31.173706%, 42.233276%)" offset="0.679688"/><stop stop-opacity="1" stop-color="rgb(23.823547%, 30.940247%, 41.868591%)" offset="0.683594"/><stop stop-opacity="1" stop-color="rgb(23.698425%, 30.706787%, 41.503906%)" offset="0.6875"/><stop stop-opacity="1" stop-color="rgb(23.573303%, 30.474854%, 41.139221%)" offset="0.691406"/><stop stop-opacity="1" stop-color="rgb(23.446655%, 30.241394%, 40.774536%)" offset="0.695312"/><stop stop-opacity="1" stop-color="rgb(23.321533%, 30.00946%, 40.409851%)" offset="0.699219"/><stop stop-opacity="1" stop-color="rgb(23.194885%, 29.776001%, 40.04364%)" offset="0.703125"/><stop stop-opacity="1" stop-color="rgb(23.069763%, 29.544067%, 39.678955%)" offset="0.707031"/><stop stop-opacity="1" stop-color="rgb(22.943115%, 29.310608%, 39.31427%)" offset="0.710938"/><stop stop-opacity="1" stop-color="rgb(22.817993%, 29.077148%, 38.949585%)" offset="0.714844"/><stop stop-opacity="1" stop-color="rgb(22.692871%, 28.845215%, 38.5849%)" offset="0.71875"/><stop stop-opacity="1" stop-color="rgb(22.566223%, 28.611755%, 38.220215%)" offset="0.722656"/><stop stop-opacity="1" stop-color="rgb(22.441101%, 28.379822%, 37.85553%)" offset="0.726562"/><stop stop-opacity="1" stop-color="rgb(22.314453%, 28.146362%, 37.490845%)" offset="0.730469"/><stop stop-opacity="1" stop-color="rgb(22.189331%, 27.912903%, 37.12616%)" offset="0.734375"/><stop stop-opacity="1" stop-color="rgb(22.062683%, 27.680969%, 36.759949%)" offset="0.738281"/><stop stop-opacity="1" stop-color="rgb(21.937561%, 27.44751%, 36.395264%)" offset="0.742188"/><stop stop-opacity="1" stop-color="rgb(21.812439%, 27.215576%, 36.030579%)" offset="0.746094"/><stop stop-opacity="1" stop-color="rgb(21.685791%, 26.982117%, 35.665894%)" offset="0.75"/><stop stop-opacity="1" stop-color="rgb(21.560669%, 26.750183%, 35.301208%)" offset="0.753906"/><stop stop-opacity="1" stop-color="rgb(21.434021%, 26.516724%, 34.936523%)" offset="0.757812"/><stop stop-opacity="1" stop-color="rgb(21.308899%, 26.283264%, 34.571838%)" offset="0.761719"/><stop stop-opacity="1" stop-color="rgb(21.182251%, 26.051331%, 34.207153%)" offset="0.765625"/><stop stop-opacity="1" stop-color="rgb(21.057129%, 25.817871%, 33.842468%)" offset="0.769531"/><stop stop-opacity="1" stop-color="rgb(20.932007%, 25.585938%, 33.477783%)" offset="0.773438"/><stop stop-opacity="1" stop-color="rgb(20.805359%, 25.352478%, 33.111572%)" offset="0.777344"/><stop stop-opacity="1" stop-color="rgb(20.680237%, 25.120544%, 32.746887%)" offset="0.78125"/><stop stop-opacity="1" stop-color="rgb(20.553589%, 24.887085%, 32.382202%)" offset="0.785156"/><stop stop-opacity="1" stop-color="rgb(20.428467%, 24.653625%, 32.017517%)" offset="0.789062"/><stop stop-opacity="1" stop-color="rgb(20.301819%, 24.421692%, 31.652832%)" offset="0.792969"/><stop stop-opacity="1" stop-color="rgb(20.176697%, 24.188232%, 31.288147%)" offset="0.796875"/><stop stop-opacity="1" stop-color="rgb(20.051575%, 23.956299%, 30.923462%)" offset="0.800781"/><stop stop-opacity="1" stop-color="rgb(19.924927%, 23.722839%, 30.558777%)" offset="0.804688"/><stop stop-opacity="1" stop-color="rgb(19.799805%, 23.490906%, 30.194092%)" offset="0.808594"/><stop stop-opacity="1" stop-color="rgb(19.673157%, 23.257446%, 29.827881%)" offset="0.8125"/><stop stop-opacity="1" stop-color="rgb(19.548035%, 23.023987%, 29.463196%)" offset="0.816406"/><stop stop-opacity="1" stop-color="rgb(19.421387%, 22.792053%, 29.098511%)" offset="0.820312"/><stop stop-opacity="1" stop-color="rgb(19.296265%, 22.558594%, 28.733826%)" offset="0.824219"/><stop stop-opacity="1" stop-color="rgb(19.171143%, 22.32666%, 28.369141%)" offset="0.828125"/><stop stop-opacity="1" stop-color="rgb(19.044495%, 22.093201%, 28.004456%)" offset="0.832031"/><stop stop-opacity="1" stop-color="rgb(18.919373%, 21.861267%, 27.639771%)" offset="0.835938"/><stop stop-opacity="1" stop-color="rgb(18.792725%, 21.627808%, 27.275085%)" offset="0.839844"/><stop stop-opacity="1" stop-color="rgb(18.667603%, 21.394348%, 26.9104%)" offset="0.84375"/><stop stop-opacity="1" stop-color="rgb(18.540955%, 21.162415%, 26.545715%)" offset="0.847656"/><stop stop-opacity="1" stop-color="rgb(18.415833%, 20.928955%, 26.179504%)" offset="0.851562"/><stop stop-opacity="1" stop-color="rgb(18.289185%, 20.697021%, 25.814819%)" offset="0.855469"/><stop stop-opacity="1" stop-color="rgb(18.164062%, 20.463562%, 25.450134%)" offset="0.859375"/><stop stop-opacity="1" stop-color="rgb(18.03894%, 20.230103%, 25.085449%)" offset="0.863281"/><stop stop-opacity="1" stop-color="rgb(17.912292%, 19.998169%, 24.720764%)" offset="0.867188"/><stop stop-opacity="1" stop-color="rgb(17.78717%, 19.764709%, 24.356079%)" offset="0.871094"/><stop stop-opacity="1" stop-color="rgb(17.660522%, 19.532776%, 23.991394%)" offset="0.875"/><stop stop-opacity="1" stop-color="rgb(17.5354%, 19.299316%, 23.626709%)" offset="0.878906"/><stop stop-opacity="1" stop-color="rgb(17.408752%, 19.067383%, 23.262024%)" offset="0.882812"/><stop stop-opacity="1" stop-color="rgb(17.28363%, 18.833923%, 22.897339%)" offset="0.886719"/><stop stop-opacity="1" stop-color="rgb(17.158508%, 18.600464%, 22.531128%)" offset="0.890625"/><stop stop-opacity="1" stop-color="rgb(17.03186%, 18.36853%, 22.166443%)" offset="0.894531"/><stop stop-opacity="1" stop-color="rgb(16.906738%, 18.135071%, 21.801758%)" offset="0.898438"/><stop stop-opacity="1" stop-color="rgb(16.78009%, 17.903137%, 21.437073%)" offset="0.902344"/><stop stop-opacity="1" stop-color="rgb(16.654968%, 17.669678%, 21.072388%)" offset="0.90625"/><stop stop-opacity="1" stop-color="rgb(16.52832%, 17.437744%, 20.707703%)" offset="0.910156"/><stop stop-opacity="1" stop-color="rgb(16.403198%, 17.204285%, 20.343018%)" offset="0.914062"/><stop stop-opacity="1" stop-color="rgb(16.278076%, 16.970825%, 19.978333%)" offset="0.917969"/><stop stop-opacity="1" stop-color="rgb(16.151428%, 16.738892%, 19.613647%)" offset="0.921875"/><stop stop-opacity="1" stop-color="rgb(16.026306%, 16.505432%, 19.247437%)" offset="0.925781"/><stop stop-opacity="1" stop-color="rgb(15.899658%, 16.273499%, 18.882751%)" offset="0.929688"/><stop stop-opacity="1" stop-color="rgb(15.774536%, 16.040039%, 18.518066%)" offset="0.933594"/><stop stop-opacity="1" stop-color="rgb(15.647888%, 15.808105%, 18.153381%)" offset="0.9375"/><stop stop-opacity="1" stop-color="rgb(15.522766%, 15.574646%, 17.788696%)" offset="0.941406"/><stop stop-opacity="1" stop-color="rgb(15.397644%, 15.341187%, 17.424011%)" offset="0.945312"/><stop stop-opacity="1" stop-color="rgb(15.270996%, 15.109253%, 17.059326%)" offset="0.949219"/><stop stop-opacity="1" stop-color="rgb(15.145874%, 14.875793%, 16.694641%)" offset="0.953125"/><stop stop-opacity="1" stop-color="rgb(15.019226%, 14.64386%, 16.329956%)" offset="0.957031"/><stop stop-opacity="1" stop-color="rgb(14.894104%, 14.4104%, 15.965271%)" offset="0.960938"/><stop stop-opacity="1" stop-color="rgb(14.767456%, 14.178467%, 15.59906%)" offset="0.964844"/><stop stop-opacity="1" stop-color="rgb(14.642334%, 13.945007%, 15.234375%)" offset="0.96875"/><stop stop-opacity="1" stop-color="rgb(14.517212%, 13.711548%, 14.86969%)" offset="0.972656"/><stop stop-opacity="1" stop-color="rgb(14.390564%, 13.479614%, 14.505005%)" offset="0.976562"/><stop stop-opacity="1" stop-color="rgb(14.265442%, 13.246155%, 14.14032%)" offset="0.980469"/><stop stop-opacity="1" stop-color="rgb(14.138794%, 13.014221%, 13.775635%)" offset="0.984375"/><stop stop-opacity="1" stop-color="rgb(14.013672%, 12.780762%, 13.41095%)" offset="0.988281"/><stop stop-opacity="1" stop-color="rgb(13.887024%, 12.547302%, 13.046265%)" offset="0.992188"/><stop stop-opacity="1" stop-color="rgb(13.761902%, 12.315369%, 12.68158%)" offset="0.996094"/><stop stop-opacity="1" stop-color="rgb(13.699341%, 12.199402%, 12.5%)" offset="1"/></radialGradient></defs><g clip-path="url(#ff66fe8c21)"><g clip-path="url(#9966184b9b)"><path fill="url(#f17838093f)" d="M 20.621094 99.753906 L 20.621094 275.515625 L 354.371094 275.515625 L 354.371094 99.753906 Z M 20.621094 99.753906 " fill-rule="nonzero"/></g></g><path fill="#6181b6" d="M 347.855469 187.636719 C 347.855469 188.964844 347.789062 190.296875 347.660156 191.625 C 347.53125 192.957031 347.339844 194.285156 347.082031 195.609375 C 346.824219 196.933594 346.503906 198.253906 346.117188 199.570312 C 345.734375 200.886719 345.285156 202.199219 344.773438 203.503906 C 344.261719 204.8125 343.6875 206.109375 343.046875 207.402344 C 342.410156 208.691406 341.710938 209.976562 340.949219 211.25 C 340.1875 212.523438 339.363281 213.789062 338.480469 215.042969 C 337.597656 216.292969 336.652344 217.535156 335.648438 218.765625 C 334.644531 219.996094 333.578125 221.214844 332.457031 222.417969 C 331.335938 223.621094 330.15625 224.808594 328.917969 225.984375 C 327.683594 227.15625 326.390625 228.316406 325.039062 229.457031 C 323.691406 230.601562 322.285156 231.722656 320.828125 232.832031 C 319.371094 233.9375 317.859375 235.027344 316.296875 236.097656 C 314.734375 237.164062 313.121094 238.214844 311.453125 239.242188 C 309.789062 240.273438 308.074219 241.28125 306.3125 242.265625 C 304.550781 243.253906 302.742188 244.21875 300.886719 245.160156 C 299.03125 246.101562 297.128906 247.019531 295.1875 247.914062 C 293.242188 248.804688 291.253906 249.675781 289.226562 250.519531 C 287.199219 251.363281 285.128906 252.183594 283.023438 252.976562 C 280.914062 253.769531 278.769531 254.535156 276.585938 255.277344 C 274.40625 256.015625 272.1875 256.726562 269.9375 257.410156 C 267.6875 258.097656 265.402344 258.753906 263.089844 259.378906 C 260.773438 260.007812 258.429688 260.605469 256.058594 261.175781 C 253.6875 261.746094 251.289062 262.285156 248.863281 262.792969 C 246.4375 263.304688 243.992188 263.78125 241.519531 264.230469 C 239.050781 264.679688 236.558594 265.097656 234.046875 265.484375 C 231.535156 265.871094 229.007812 266.222656 226.460938 266.546875 C 223.914062 266.871094 221.355469 267.164062 218.78125 267.421875 C 216.207031 267.683594 213.621094 267.910156 211.027344 268.105469 C 208.429688 268.300781 205.828125 268.464844 203.214844 268.59375 C 200.601562 268.726562 197.988281 268.824219 195.367188 268.886719 C 192.746094 268.953125 190.121094 268.984375 187.496094 268.984375 C 184.871094 268.984375 182.25 268.953125 179.628906 268.886719 C 177.007812 268.824219 174.390625 268.726562 171.78125 268.59375 C 169.167969 268.464844 166.5625 268.300781 163.96875 268.105469 C 161.371094 267.910156 158.789062 267.683594 156.214844 267.421875 C 153.640625 267.164062 151.078125 266.871094 148.535156 266.546875 C 145.988281 266.222656 143.460938 265.871094 140.949219 265.484375 C 138.4375 265.097656 135.945312 264.679688 133.476562 264.230469 C 131.003906 263.78125 128.554688 263.304688 126.132812 262.792969 C 123.707031 262.285156 121.308594 261.746094 118.9375 261.175781 C 116.5625 260.605469 114.21875 260.007812 111.90625 259.378906 C 109.589844 258.753906 107.308594 258.097656 105.058594 257.410156 C 102.808594 256.726562 100.589844 256.015625 98.40625 255.277344 C 96.226562 254.535156 94.082031 253.769531 91.972656 252.976562 C 89.863281 252.183594 87.796875 251.363281 85.769531 250.519531 C 83.738281 249.675781 81.753906 248.804688 79.808594 247.910156 C 77.863281 247.019531 75.964844 246.101562 74.109375 245.160156 C 72.253906 244.21875 70.445312 243.253906 68.679688 242.265625 C 66.917969 241.28125 65.203125 240.273438 63.539062 239.242188 C 61.875 238.214844 60.261719 237.164062 58.699219 236.097656 C 57.132812 235.027344 55.625 233.9375 54.164062 232.832031 C 52.707031 231.722656 51.304688 230.601562 49.953125 229.457031 C 48.605469 228.316406 47.3125 227.15625 46.074219 225.984375 C 44.839844 224.808594 43.660156 223.621094 42.535156 222.417969 C 41.414062 221.214844 40.351562 219.996094 39.347656 218.765625 C 38.34375 217.535156 37.398438 216.292969 36.515625 215.042969 C 35.628906 213.789062 34.808594 212.523438 34.046875 211.25 C 33.285156 209.976562 32.585938 208.691406 31.945312 207.402344 C 31.308594 206.109375 30.734375 204.8125 30.222656 203.503906 C 29.710938 202.199219 29.261719 200.886719 28.875 199.570312 C 28.492188 198.253906 28.171875 196.933594 27.914062 195.609375 C 27.65625 194.285156 27.460938 192.957031 27.335938 191.625 C 27.207031 190.296875 27.140625 188.964844 27.140625 187.636719 C 27.140625 186.304688 27.207031 184.972656 27.335938 183.644531 C 27.460938 182.3125 27.65625 180.984375 27.914062 179.660156 C 28.171875 178.335938 28.492188 177.015625 28.875 175.699219 C 29.261719 174.382812 29.710938 173.070312 30.222656 171.765625 C 30.734375 170.457031 31.308594 169.160156 31.945312 167.867188 C 32.585938 166.578125 33.285156 165.292969 34.046875 164.019531 C 34.808594 162.746094 35.628906 161.480469 36.515625 160.230469 C 37.398438 158.976562 38.34375 157.734375 39.347656 156.503906 C 40.351562 155.273438 41.414062 154.054688 42.535156 152.851562 C 43.660156 151.648438 44.839844 150.460938 46.074219 149.285156 C 47.3125 148.113281 48.605469 146.953125 49.953125 145.8125 C 51.304688 144.671875 52.707031 143.546875 54.164062 142.4375 C 55.625 141.332031 57.132812 140.242188 58.699219 139.175781 C 60.261719 138.105469 61.875 137.054688 63.539062 136.027344 C 65.203125 134.996094 66.917969 133.988281 68.679688 133.003906 C 70.445312 132.015625 72.253906 131.050781 74.109375 130.109375 C 75.964844 129.167969 77.863281 128.253906 79.808594 127.359375 C 81.753906 126.464844 83.738281 125.59375 85.769531 124.75 C 87.796875 123.90625 89.863281 123.085938 91.972656 122.292969 C 94.082031 121.5 96.226562 120.734375 98.40625 119.992188 C 100.589844 119.253906 102.808594 118.542969 105.058594 117.859375 C 107.308594 117.171875 109.589844 116.515625 111.90625 115.890625 C 114.21875 115.261719 116.5625 114.664062 118.9375 114.09375 C 121.308594 113.523438 123.707031 112.984375 126.132812 112.476562 C 128.554688 111.96875 131.003906 111.488281 133.476562 111.039062 C 135.945312 110.589844 138.4375 110.171875 140.949219 109.785156 C 143.460938 109.402344 145.988281 109.046875 148.535156 108.722656 C 151.078125 108.398438 153.640625 108.105469 156.214844 107.847656 C 158.789062 107.585938 161.371094 107.359375 163.96875 107.164062 C 166.5625 106.96875 169.167969 106.804688 171.78125 106.675781 C 174.390625 106.546875 177.007812 106.449219 179.628906 106.382812 C 182.25 106.316406 184.871094 106.285156 187.496094 106.285156 C 190.121094 106.285156 192.746094 106.316406 195.367188 106.382812 C 197.988281 106.449219 200.601562 106.546875 203.214844 106.675781 C 205.828125 106.804688 208.429688 106.96875 211.027344 107.164062 C 213.621094 107.359375 216.207031 107.585938 218.78125 107.847656 C 221.355469 108.105469 223.914062 108.398438 226.460938 108.722656 C 229.007812 109.046875 231.535156 109.402344 234.046875 109.785156 C 236.558594 110.171875 239.050781 110.589844 241.519531 111.039062 C 243.992188 111.488281 246.4375 111.96875 248.863281 112.476562 C 251.289062 112.984375 253.6875 113.523438 256.058594 114.09375 C 258.429688 114.664062 260.773438 115.261719 263.089844 115.890625 C 265.402344 116.515625 267.6875 117.171875 269.9375 117.859375 C 272.1875 118.542969 274.40625 119.253906 276.585938 119.992188 C 278.769531 120.734375 280.914062 121.5 283.023438 122.292969 C 285.128906 123.085938 287.199219 123.90625 289.226562 124.75 C 291.253906 125.59375 293.242188 126.464844 295.1875 127.359375 C 297.128906 128.253906 299.03125 129.167969 300.886719 130.109375 C 302.742188 131.050781 304.550781 132.015625 306.3125 133.003906 C 308.074219 133.988281 309.789062 134.996094 311.453125 136.027344 C 313.121094 137.054688 314.734375 138.105469 316.296875 139.175781 C 317.859375 140.242188 319.371094 141.332031 320.828125 142.4375 C 322.285156 143.546875 323.691406 144.671875 325.039062 145.8125 C 326.390625 146.953125 327.683594 148.113281 328.917969 149.285156 C 330.15625 150.460938 331.335938 151.648438 332.457031 152.851562 C 333.578125 154.054688 334.644531 155.273438 335.648438 156.503906 C 336.652344 157.734375 337.597656 158.976562 338.480469 160.230469 C 339.363281 161.480469 340.1875 162.746094 340.949219 164.019531 C 341.710938 165.292969 342.410156 166.578125 343.046875 167.867188 C 343.6875 169.160156 344.261719 170.457031 344.773438 171.765625 C 345.285156 173.070312 345.734375 174.382812 346.117188 175.699219 C 346.503906 177.015625 346.824219 178.335938 347.082031 179.660156 C 347.339844 180.984375 347.53125 182.3125 347.660156 183.644531 C 347.789062 184.972656 347.855469 186.304688 347.855469 187.636719 Z M 347.855469 187.636719 " fill-opacity="1" fill-rule="nonzero"/><path fill="#ffffff" d="M 219.960938 214.011719 L 227.914062 173.011719 C 229.738281 163.738281 228.171875 156.816406 223.480469 152.507812 C 218.917969 148.332031 211.09375 146.242188 199.621094 146.242188 L 185.800781 146.242188 L 189.714844 125.871094 C 189.84375 125.085938 189.714844 124.304688 189.191406 123.652344 C 188.671875 123 188.019531 122.738281 187.238281 122.738281 L 168.203125 122.738281 C 166.898438 122.738281 165.855469 123.652344 165.59375 124.828125 L 157.121094 168.308594 C 156.339844 163.347656 154.511719 159.167969 151.382812 155.773438 C 145.777344 149.375 137.042969 146.109375 125.179688 146.109375 L 88.546875 146.109375 C 87.242188 146.109375 86.199219 147.023438 85.9375 148.199219 L 68.859375 236.472656 C 68.730469 237.253906 68.859375 238.039062 69.382812 238.691406 C 69.902344 239.34375 70.554688 239.605469 71.335938 239.605469 L 90.5 239.605469 C 91.804688 239.605469 92.847656 238.691406 93.109375 237.515625 L 97.28125 216.230469 L 111.492188 216.230469 C 118.921875 216.230469 125.308594 215.449219 130.132812 213.882812 C 135.21875 212.183594 139.78125 209.441406 143.824219 205.65625 C 147.082031 202.652344 149.820312 199.257812 151.90625 195.601562 L 148.515625 213.230469 C 148.386719 214.011719 148.515625 214.796875 149.039062 215.449219 C 149.558594 216.101562 150.210938 216.363281 150.992188 216.363281 L 170.027344 216.363281 C 171.332031 216.363281 172.375 215.449219 172.636719 214.273438 L 182.023438 165.957031 L 195.058594 165.957031 C 200.664062 165.957031 202.230469 167.003906 202.75 167.527344 C 203.140625 167.917969 203.925781 169.484375 203.011719 174.316406 L 195.449219 213.359375 C 195.320312 214.144531 195.449219 214.925781 195.972656 215.578125 C 196.492188 216.230469 197.144531 216.492188 197.925781 216.492188 L 217.484375 216.492188 C 218.65625 216.101562 219.699219 215.1875 219.960938 214.011719 Z M 131.828125 180.0625 C 130.65625 186.199219 128.4375 190.636719 125.179688 193.121094 C 121.921875 195.601562 116.574219 196.90625 109.535156 196.90625 L 101.0625 196.90625 L 107.1875 165.304688 L 118.140625 165.304688 C 126.222656 165.304688 129.480469 167.003906 130.785156 168.441406 C 132.480469 170.527344 132.871094 174.578125 131.828125 180.0625 Z M 131.828125 180.0625 " fill-opacity="1" fill-rule="nonzero"/><path fill="#ffffff" d="M 301.3125 155.773438 C 295.707031 149.375 286.96875 146.109375 275.105469 146.109375 L 238.210938 146.109375 C 236.90625 146.109375 235.863281 147.023438 235.605469 148.199219 L 218.527344 236.339844 C 218.394531 237.125 218.527344 237.90625 219.046875 238.5625 C 219.570312 239.214844 220.21875 239.476562 221.003906 239.476562 L 240.167969 239.476562 C 241.472656 239.476562 242.515625 238.5625 242.773438 237.386719 L 246.945312 216.101562 L 261.15625 216.101562 C 268.589844 216.101562 274.976562 215.316406 279.800781 213.75 C 284.882812 212.054688 289.449219 209.3125 293.488281 205.523438 C 296.878906 202.390625 299.746094 198.863281 301.832031 195.078125 C 303.917969 191.292969 305.484375 187.113281 306.394531 182.542969 C 308.613281 171.183594 306.917969 162.300781 301.3125 155.773438 Z M 281.363281 180.0625 C 280.191406 186.199219 277.976562 190.636719 274.714844 193.121094 C 271.457031 195.601562 266.109375 196.90625 259.070312 196.90625 L 250.597656 196.90625 L 256.722656 165.304688 L 267.675781 165.304688 C 275.757812 165.304688 279.019531 167.003906 280.320312 168.441406 C 282.148438 170.527344 282.539062 174.578125 281.363281 180.0625 Z M 281.363281 180.0625 " fill-opacity="1" fill-rule="nonzero"/><path fill="#000004" d="M 118.140625 162.695312 C 125.441406 162.695312 130.265625 164 132.742188 166.742188 C 135.21875 169.484375 135.738281 174.054688 134.4375 180.582031 C 133.132812 187.375 130.523438 192.335938 126.746094 195.207031 C 122.964844 198.082031 117.226562 199.519531 109.535156 199.519531 L 97.933594 199.519531 L 105.101562 162.695312 Z M 71.46875 236.863281 L 90.632812 236.863281 L 95.195312 213.488281 L 111.621094 213.488281 C 118.921875 213.488281 124.789062 212.707031 129.480469 211.140625 C 134.175781 209.574219 138.347656 207.089844 142.257812 203.433594 C 145.519531 200.433594 148.125 197.167969 150.082031 193.640625 C 152.035156 190.117188 153.46875 186.199219 154.253906 181.890625 C 156.339844 171.441406 154.773438 163.347656 149.691406 157.472656 C 144.605469 151.59375 136.523438 148.722656 125.441406 148.722656 L 88.546875 148.722656 Z M 71.46875 236.863281 " fill-opacity="1" fill-rule="nonzero"/><path fill="#000004" d="M 168.332031 125.347656 L 187.367188 125.347656 L 182.804688 148.722656 L 199.753906 148.722656 C 210.441406 148.722656 217.742188 150.550781 221.785156 154.335938 C 225.828125 158.125 227 164.128906 225.433594 172.488281 L 217.484375 213.488281 L 198.1875 213.488281 L 205.75 174.445312 C 206.660156 170.007812 206.269531 167.003906 204.835938 165.4375 C 203.402344 163.871094 200.144531 162.957031 195.320312 162.957031 L 180.066406 162.957031 L 170.289062 213.488281 L 151.253906 213.488281 Z M 168.332031 125.347656 " fill-opacity="1" fill-rule="nonzero"/><path fill="#000004" d="M 267.675781 162.695312 C 274.976562 162.695312 279.800781 164 282.277344 166.742188 C 284.753906 169.484375 285.277344 174.054688 283.972656 180.582031 C 282.667969 187.375 280.0625 192.335938 276.28125 195.207031 C 272.5 198.082031 266.761719 199.519531 259.070312 199.519531 L 247.46875 199.519531 L 254.636719 162.695312 Z M 221.003906 236.863281 L 240.167969 236.863281 L 244.730469 213.488281 L 261.15625 213.488281 C 268.457031 213.488281 274.324219 212.707031 279.019531 211.140625 C 283.710938 209.574219 287.882812 207.089844 291.792969 203.433594 C 295.054688 200.433594 297.660156 197.167969 299.617188 193.640625 C 301.570312 190.117188 303.007812 186.199219 303.789062 181.890625 C 305.875 171.441406 304.308594 163.347656 299.226562 157.472656 C 294.140625 151.59375 286.058594 148.722656 274.976562 148.722656 L 238.082031 148.722656 Z M 221.003906 236.863281 " fill-opacity="1" fill-rule="nonzero"/></svg>